/* XPM */
static char * sear_icon_xpm[] = {
"32 32 258 2",
"  	c None",
". 	c #161300",
"+ 	c #5A4E01",
"@ 	c #9D8803",
"# 	c #A38D03",
"$ 	c #A28D03",
"% 	c #9F8A03",
"& 	c #5C5001",
"* 	c #2F2800",
"= 	c #403701",
"- 	c #423901",
"; 	c #3D3501",
"> 	c #746402",
", 	c #E3C504",
"' 	c #F2D204",
") 	c #C1AC20",
"! 	c #BCB26B",
"~ 	c #BCB26D",
"{ 	c #B2AA78",
"] 	c #B4AC74",
"^ 	c #BBB06C",
"/ 	c #C1AC1F",
"( 	c #DBBF08",
"_ 	c #EECF04",
": 	c #D9BD08",
"< 	c #C8B011",
"[ 	c #DFC204",
"} 	c #EFD004",
"| 	c #BBA931",
"1 	c #E1E1E1",
"2 	c #EDEDED",
"3 	c #E5E5E5",
"4 	c #BCB16A",
"5 	c #B0A876",
"6 	c #B6AE75",
"7 	c #C7C090",
"8 	c #E7E7E7",
"9 	c #D8D8D8",
"0 	c #B3A544",
"a 	c #B4AD7C",
"b 	c #CFCFCF",
"c 	c #5B4F01",
"d 	c #463C01",
"e 	c #EBCC04",
"f 	c #BFB46B",
"g 	c #E2E2E2",
"h 	c #BFB46C",
"i 	c #DFC308",
"j 	c #E8C904",
"k 	c #A48E03",
"l 	c #B9A103",
"m 	c #EACB04",
"n 	c #DEC208",
"o 	c #BAAB4A",
"p 	c #D6D6D6",
"q 	c #D0D0D0",
"r 	c #CCCCCC",
"s 	c #C0AA1E",
"t 	c #A18C03",
"u 	c #B69E03",
"v 	c #CFB610",
"w 	c #EBEBEB",
"x 	c #E8E8E8",
"y 	c #BBAC4B",
"z 	c #F0D004",
"A 	c #A08B03",
"B 	c #302900",
"C 	c #2E2800",
"D 	c #8B7902",
"E 	c #C3AE1E",
"F 	c #CBCBCB",
"G 	c #C8C8C8",
"H 	c #B4A962",
"I 	c #D2B604",
"J 	c #CAC28D",
"K 	c #EEEDEC",
"L 	c #EFEEE9",
"M 	c #DCBF04",
"N 	c #917E02",
"O 	c #5F5201",
"P 	c #C3AD1B",
"Q 	c #D7D7D5",
"R 	c #C5C1A8",
"S 	c #3E3501",
"T 	c #ECCD04",
"U 	c #F1EFE4",
"V 	c #F1F0E9",
"W 	c #F0EEE1",
"X 	c #F5D504",
"Y 	c #7D6C02",
"Z 	c #C3AD19",
"` 	c #DAD8CC",
" .	c #BBA203",
"..	c #EEEDE4",
"+.	c #ECEADE",
"@.	c #F1EED9",
"#.	c #BDA927",
"$.	c #756502",
"%.	c #181400",
"&.	c #B7A73D",
"*.	c #B59D03",
"=.	c #413801",
"-.	c #E6C804",
";.	c #C1B668",
">.	c #EDEBDF",
",.	c #EDEBD8",
"'.	c #F0ECD1",
").	c #F4D404",
"!.	c #E7C904",
"~.	c #2B2500",
"{.	c #817002",
"].	c #847202",
"^.	c #362F01",
"/.	c #CEB50E",
"(.	c #EBE9DD",
"_.	c #F0EDDC",
":.	c #EFEBCE",
"<.	c #EDEAD1",
"[.	c #F1F0EB",
"}.	c #C0B464",
"|.	c #A58F03",
"1.	c #DBBF05",
"2.	c #716202",
"3.	c #2D2700",
"4.	c #191500",
"5.	c #443B01",
"6.	c #C4AE1B",
"7.	c #F1EEDA",
"8.	c #F2EFD7",
"9.	c #F1EFE0",
"0.	c #F2F1ED",
"a.	c #E8E7E4",
"b.	c #F0EEE2",
"c.	c #F2EFD4",
"d.	c #DAD3A0",
"e.	c #BFB35E",
"f.	c #BBA930",
"g.	c #DCC007",
"h.	c #CEB304",
"i.	c #726302",
"j.	c #151200",
"k.	c #CEB50D",
"l.	c #CBC287",
"m.	c #F1F0EC",
"n.	c #E7E6E6",
"o.	c #F2F0E1",
"p.	c #F2F0DC",
"q.	c #F1EFE3",
"r.	c #EBEAE6",
"s.	c #EBEAE7",
"t.	c #DAD5B4",
"u.	c #BDAA2C",
"v.	c #CAAF03",
"w.	c #312A00",
"x.	c #D8BC04",
"y.	c #BBA934",
"z.	c #C0B56D",
"A.	c #F1F1F1",
"B.	c #F1F0EE",
"C.	c #F1F0EA",
"D.	c #F1F0EF",
"E.	c #ECEBEA",
"F.	c #EAE9E2",
"G.	c #EFEDE2",
"H.	c #EBE9D8",
"I.	c #D4CEA4",
"J.	c #E1C407",
"K.	c #CBB003",
"L.	c #2C2600",
"M.	c #F1D104",
"N.	c #BBAD4D",
"O.	c #C6BE8C",
"P.	c #EBE9DE",
"Q.	c #EAE8D7",
"R.	c #EEEBD6",
"S.	c #D2CEB6",
"T.	c #D9BC04",
"U.	c #897702",
"V.	c #594D01",
"W.	c #E9CA04",
"X.	c #C2AC19",
"Y.	c #C8BE7C",
"Z.	c #EEEBD5",
"`.	c #E6E5E0",
" +	c #BAAB4B",
".+	c #D0B504",
"++	c #BEB25D",
"@+	c #E1E0DF",
"#+	c #D6D2B9",
"$+	c #E9E9E9",
"%+	c #BCAA33",
"&+	c #D1B504",
"*+	c #E0C306",
"=+	c #E4E4E4",
"-+	c #BAAF67",
";+	c #CFCBB2",
">+	c #171400",
",+	c #393101",
"'+	c #DFDFDF",
")+	c #DEDEDE",
"!+	c #E6E6E6",
"~+	c #C0AB1F",
"{+	c #DADADA",
"]+	c #C3BC8C",
"^+	c #C4BD8C",
"/+	c #DCDCDC",
"(+	c #DBDBDB",
"_+	c #BDB269",
":+	c #DBBE04",
"<+	c #CDB204",
"[+	c #483E01",
"}+	c #605301",
"|+	c #B4A544",
"1+	c #C6C6C6",
"2+	c #BBA932",
"3+	c #BAA103",
"4+	c #C0B888",
"5+	c #E0E0E0",
"6+	c #E3E3E3",
"7+	c #CAC6AE",
"8+	c #C4AA03",
"9+	c #453C01",
"0+	c #C3AD1D",
"a+	c #C3C3C3",
"b+	c #C7C7C7",
"c+	c #BEB786",
"d+	c #706102",
"e+	c #B9A731",
"f+	c #D3D3D3",
"g+	c #B9AE65",
"h+	c #C1A803",
"i+	c #A69003",
"j+	c #D4D4D4",
"k+	c #B9B181",
"l+	c #736402",
"m+	c #DDC008",
"n+	c #AFA777",
"o+	c #D5D5D5",
"p+	c #B3A969",
"q+	c #A9A16E",
"r+	c #B6AC65",
"s+	c #D7D7D7",
"t+	c #CDCDCD",
"u+	c #C2BEA6",
"v+	c #BAA730",
"w+	c #BEA920",
"x+	c #C3A903",
"y+	c #CBB211",
"z+	c #B9A732",
"A+	c #B7AD67",
"B+	c #AFA567",
"C+	c #A8A06D",
"D+	c #B7AC67",
"E+	c #B6A74A",
"F+	c #BFAA20",
"G+	c #CFB404",
"H+	c #544901",
"I+	c #554A01",
"                                                                ",
"                                                                ",
"                                                                ",
"                                                                ",
"                    . + @ # $ @ % $ @ & * = - ;                 ",
"                  > , ' ) ! ~ { ] ^ / ( _ : < [ .               ",
"                @ } | 1 2 3 4 5 6 7 8 9 0 a b ' c               ",
"              d e f g 8 h i j k l m n o p q r s t               ",
"              u v w x y z A B     C D e E F G H I               ",
"              j J K L M N             O j P Q R _ S             ",
"              T U V W X Y               O j Z `  .-             ",
"              T ..+.@.#.e $.%.            O e &.*.=.            ",
"              -.;.>.,.'.#.).!.# & ~.        {.D ].^.            ",
"              t /.(._.:.<.[.}.|.1.T I # 2.3.4.                  ",
"              5.-.6.7.8.9.0.a.b.c.d.e.f.g.T h.i.j.              ",
"                O -.k.l.m.2 n.L o.p.q.r.s.t.u.' v.w.            ",
"                  d u m x.y.z.A.B.C.D.E.F.G.H.I.J.K.L.          ",
"                      3.2.k !.M.) N.O.L P.Q.R.(.S.T.U.          ",
"            ; - ;           . V.D  .W.' X.Y.Z.`.3  +.+          ",
"            [  .!.i.                . & l ).++@+8 #+m           ",
"            T $+%+&+B                   %.A *+=+=+8 T           ",
"            -.-+;+M *.>+                  ,+z '+)+!+T           ",
"            # ~+{+]+).A C                 D n F 9 ^+j           ",
"            c ' /+(+_+:+<+[+            }+e |+1+9 2+3+          ",
"            . W.4+5+6+7+8+e t 9+    %.$.W.0+a+b+c+z d+          ",
"              3+e+)+{+f+F g+h+_ .+i+-.).| q j+k+:+*.            ",
"              l+m+{+0+v n+o+)+7+p+q+r+s+t+u+v+z *.3.            ",
"              L., w+_ x+T y+z+A+B+C+D+E+F+z G+i.                ",
"                H+c I+>+=.i.% $ A @ $ t U.V.                    ",
"                                                                ",
"                                                                ",
"                                                                "};
